<svg width="1320" height="493" viewBox="0 0 1320 493" fill="none" xmlns="http://www.w3.org/2000/svg">
<mask id="mask0_47_1755" style="mask-type:alpha" maskUnits="userSpaceOnUse" x="0" y="0" width="1320" height="493">
<rect x="0.5" y="0.5" width="1319" height="492" rx="19.5" fill="url(#paint0_radial_47_1755)" stroke="black"/>
</mask>
<g mask="url(#mask0_47_1755)">
<g style="mix-blend-mode:multiply" opacity="0.2">
<circle cx="389.238" cy="-4.30687" r="55.6931" fill="#EBE0CC"/>
<circle cx="166.466" cy="-4.30687" r="55.6931" fill="#EBE0CC"/>
<circle cx="612.011" cy="-4.30687" r="55.6931" fill="#EBE0CC"/>
<circle cx="55.0794" cy="64.7808" r="55.6931" fill="#EBE0CC"/>
<circle cx="500.624" cy="64.7808" r="55.6931" fill="#EBE0CC"/>
<circle cx="277.852" cy="64.7808" r="55.6931" fill="#EBE0CC"/>
<circle cx="723.397" cy="64.7808" r="55.6931" fill="#EBE0CC"/>
<circle cx="389.238" cy="272.044" r="55.6931" fill="#EBDAE2"/>
<circle cx="166.466" cy="272.044" r="55.6931" fill="#EBDAE2"/>
<circle cx="612.011" cy="272.044" r="55.6931" fill="#EBDAE2"/>
<circle cx="55.0794" cy="341.132" r="55.6931" fill="#EBDAE2"/>
<circle cx="500.624" cy="341.132" r="55.6931" fill="#EBDAE2"/>
<circle cx="277.852" cy="341.132" r="55.6931" fill="#EBDAE2"/>
<circle cx="723.397" cy="341.132" r="55.6931" fill="#EBDAE2"/>
<circle cx="389.238" cy="133.868" r="55.6931" fill="#DCDEEB"/>
<circle cx="166.466" cy="133.868" r="55.6931" fill="#DCDEEB"/>
<circle cx="612.011" cy="133.868" r="55.6931" fill="#DCDEEB"/>
<circle cx="55.0794" cy="202.956" r="55.6931" fill="#DCDEEB"/>
<circle cx="500.624" cy="202.956" r="55.6931" fill="#DCDEEB"/>
<circle cx="277.852" cy="202.956" r="55.6931" fill="#DCDEEB"/>
<circle cx="723.397" cy="202.956" r="55.6931" fill="#DCDEEB"/>
<circle cx="389.238" cy="410.219" r="55.6931" fill="#E3ECE9"/>
<circle cx="166.466" cy="410.219" r="55.6931" fill="#E3ECE9"/>
<circle cx="612.011" cy="410.219" r="55.6931" fill="#E3ECE9"/>
<circle cx="55.0794" cy="479.307" r="55.6931" fill="#E3ECE9"/>
<circle cx="500.624" cy="479.307" r="55.6931" fill="#E3ECE9"/>
<circle cx="277.852" cy="479.307" r="55.6931" fill="#E3ECE9"/>
<circle cx="723.397" cy="479.307" r="55.6931" fill="#E3ECE9"/>
<circle cx="834.693" cy="-4.30687" r="55.6931" fill="#EBE0CC"/>
<circle cx="1280.24" cy="-4.30687" r="55.6931" fill="#EBE0CC"/>
<circle cx="1057.47" cy="-4.30687" r="55.6931" fill="#EBE0CC"/>
<circle cx="946.079" cy="64.7808" r="55.6931" fill="#EBE0CC"/>
<circle cx="1168.85" cy="64.7808" r="55.6931" fill="#EBE0CC"/>
<circle cx="834.693" cy="272.044" r="55.6931" fill="#EBDAE2"/>
<circle cx="1280.24" cy="272.044" r="55.6931" fill="#EBDAE2"/>
<circle cx="1057.47" cy="272.044" r="55.6931" fill="#EBDAE2"/>
<circle cx="946.079" cy="341.132" r="55.6931" fill="#EBDAE2"/>
<circle cx="1168.85" cy="341.132" r="55.6931" fill="#EBDAE2"/>
<circle cx="834.693" cy="133.868" r="55.6931" fill="#DCDEEB"/>
<circle cx="1280.24" cy="133.868" r="55.6931" fill="#DCDEEB"/>
<circle cx="1057.47" cy="133.868" r="55.6931" fill="#DCDEEB"/>
<circle cx="946.079" cy="202.956" r="55.6931" fill="#DCDEEB"/>
<circle cx="1168.85" cy="202.956" r="55.6931" fill="#DCDEEB"/>
<circle cx="834.693" cy="410.219" r="55.6931" fill="#E3ECE9"/>
<circle cx="1280.24" cy="410.219" r="55.6931" fill="#E3ECE9"/>
<circle cx="1057.47" cy="410.219" r="55.6931" fill="#E3ECE9"/>
<circle cx="946.079" cy="479.307" r="55.6931" fill="#E3ECE9"/>
<circle cx="1168.85" cy="479.307" r="55.6931" fill="#E3ECE9"/>
</g>
</g>
<defs>
<radialGradient id="paint0_radial_47_1755" cx="0" cy="0" r="1" gradientUnits="userSpaceOnUse" gradientTransform="translate(70.0001 375) rotate(-18.5238) scale(1630.47 4365.56)">
<stop stop-color="#EDEEF2"/>
<stop offset="1" stop-color="#ECF0F3"/>
</radialGradient>
</defs>
</svg>
